<?xml version="1.0" encoding="utf-8"?>
<!-- Generator: Adobe Illustrator 24.3.0, SVG Export Plug-In . SVG Version: 6.00 Build 0)  -->
<svg version="1.1" id="Capa_1" xmlns="http://www.w3.org/2000/svg" xmlns:xlink="http://www.w3.org/1999/xlink" x="0px" y="0px"
	 viewBox="0 0 1243.9 155" style="enable-background:new 0 0 1243.9 155;" xml:space="preserve">
<style type="text/css">
	.st0{fill:url(#SVGID_1_);}
	.st1{fill:#FFFFFF;}
</style>
<g>
	<linearGradient id="SVGID_1_" gradientUnits="userSpaceOnUse" x1="0" y1="77.4783" x2="1243.8831" y2="77.4783">
		<stop  offset="0" style="stop-color:#0BC200"/>
		<stop  offset="1" style="stop-color:#95C200"/>
	</linearGradient>
	<path class="st0" d="M1225.1,155H18.8C8.4,155,0,146.5,0,136.2V18.8C0,8.4,8.4,0,18.8,0h1206.3c10.4,0,18.8,8.4,18.8,18.8v117.4
		C1243.9,146.5,1235.5,155,1225.1,155z"/>
	<g>
		<path class="st1" d="M544.3,69.5c0,5.9-4.1,10-10.6,10h-5.5v10.1h-4.8V59.5h10.3C540.2,59.5,544.3,63.5,544.3,69.5z M539.4,69.5
			c0-3.9-2.5-5.6-6.2-5.6h-5v11.2h5C537,75.1,539.4,73.4,539.4,69.5z"/>
		<path class="st1" d="M546.2,78.6c0-7.6,5.5-11.5,10.7-11.5c4,0,6.8,2.2,7.6,3.9h0.1v-3.5h4.7v22.1h-4.7v-3.5h-0.1
			c-0.8,1.7-3.6,3.9-7.6,3.9C551.7,90,546.2,86.2,546.2,78.6z M564.8,78.6c0-4.8-3.4-7.2-7-7.2c-3.5,0-7,2.5-7,7.2
			c0,4.8,3.4,7.2,7,7.2C561.4,85.8,564.8,83.3,564.8,78.6z"/>
		<path class="st1" d="M596.1,67.5v20.6c0,8.1-6.3,10.3-11.4,10.3c-2.8,0-5.3-0.6-6.4-1.4v-3.9c1,0.7,3.2,1.4,5.6,1.4
			c4.3,0,7.5-2,7.5-6.1v-2.3h-0.3c-0.8,1.7-3.5,3.9-7.5,3.9c-5.2,0-10.7-3.9-10.7-11.5c0-7.6,5.5-11.5,10.7-11.5
			c4,0,6.7,2.2,7.5,3.9h0.3v-3.5H596.1z M591.5,78.6c0-4.8-3.4-7.2-7-7.2c-3.5,0-7,2.5-7,7.2c0,4.8,3.4,7.2,7,7.2
			C588.1,85.8,591.5,83.3,591.5,78.6z"/>
		<path class="st1" d="M599.7,78.6c0-7.6,5.5-11.5,10.7-11.5c4,0,6.8,2.2,7.6,3.9h0.1v-3.5h4.7v22.1h-4.7v-3.5H618
			c-0.8,1.7-3.6,3.9-7.6,3.9C605.1,90,599.7,86.2,599.7,78.6z M618.2,78.6c0-4.8-3.4-7.2-7-7.2c-3.5,0-7,2.5-7,7.2
			c0,4.8,3.4,7.2,7,7.2C614.8,85.8,618.2,83.3,618.2,78.6z"/>
		<path class="st1" d="M640.5,67.3v4.5c-0.5-0.1-0.8-0.1-1.4-0.1c-4.2,0-7,3.1-7,7.7v10.3h-4.7V67.5h4.7v5.7c0.8-3.3,3-6.1,7-6.1
			C639.6,67.1,640,67.1,640.5,67.3z"/>
		<path class="st1" d="M671.4,83.4h-13.5l-2.3,6.2h-5.2l11.8-30.1h5l11.8,30.1h-5.2L671.4,83.4z M669.8,79l-5.1-13.5L659.6,79H669.8
			z"/>
		<path class="st1" d="M702.1,76.6v13h-4.7V77.4c0-3.9-2.1-6-5.4-6c-3.2,0-5.4,2.2-5.4,6v12.2h-4.7V59.5h4.7v11.4
			c1.2-2,3.5-3.7,7.1-3.7C698.2,67.1,702.1,69.9,702.1,76.6z"/>
		<path class="st1" d="M705.7,78.6c0-7.4,5.8-11.5,11.5-11.5s11.5,4,11.5,11.5c0,7.4-5.8,11.5-11.5,11.5S705.7,86,705.7,78.6z
			 M724.1,78.6c0-4.5-3.3-7.2-6.9-7.2c-3.6,0-6.9,2.6-6.9,7.2c0,4.5,3.3,7.2,6.9,7.2C720.8,85.7,724.1,83.1,724.1,78.6z"/>
		<path class="st1" d="M745.4,67.3v4.5c-0.5-0.1-0.8-0.1-1.4-0.1c-4.2,0-7,3.1-7,7.7v10.3h-4.7V67.5h4.7v5.7c0.8-3.3,3-6.1,7-6.1
			C744.6,67.1,745,67.1,745.4,67.3z"/>
		<path class="st1" d="M747.3,78.6c0-7.6,5.5-11.5,10.7-11.5c4,0,6.8,2.2,7.6,3.9h0.1v-3.5h4.7v22.1h-4.7v-3.5h-0.1
			c-0.8,1.7-3.6,3.9-7.6,3.9C752.8,90,747.3,86.2,747.3,78.6z M765.9,78.6c0-4.8-3.4-7.2-7-7.2c-3.5,0-7,2.5-7,7.2
			c0,4.8,3.4,7.2,7,7.2C762.5,85.8,765.9,83.3,765.9,78.6z"/>
	</g>
</g>
</svg>
