<?xml version="1.0" encoding="utf-8"?>
<!-- Generator: Adobe Illustrator 24.3.0, SVG Export Plug-In . SVG Version: 6.00 Build 0)  -->
<svg version="1.1" id="Capa_1" xmlns="http://www.w3.org/2000/svg" xmlns:xlink="http://www.w3.org/1999/xlink" x="0px" y="0px"
	 viewBox="0 0 438.8 657.3" style="enable-background:new 0 0 438.8 657.3;" xml:space="preserve">
<style type="text/css">
	.st0{fill:url(#SVGID_1_);}
	.st1{fill:#FBFCFD;}
	.st2{fill:#E3E4E6;}
	.st3{fill:none;}
	.st4{fill:#CDCDCD;}
	.st5{fill:#4F4F4F;}
	.st6{fill:#7F7F7F;}
	.st7{fill:#1F2A53;}
	.st8{fill:url(#SVGID_2_);}
	.st9{fill:#FFFFFF;}
</style>
<g>
	<linearGradient id="SVGID_1_" gradientUnits="userSpaceOnUse" x1="112.1795" y1="13.1935" x2="326.6112" y2="13.1935">
		<stop  offset="0" style="stop-color:#0BC200"/>
		<stop  offset="1" style="stop-color:#95C200"/>
	</linearGradient>
	<path class="st0" d="M320.8,26.4H117.9c-3.2,0-5.8-2.6-5.8-5.8V5.8c0-3.2,2.6-5.8,5.8-5.8h202.9c3.2,0,5.8,2.6,5.8,5.8v14.9
		C326.6,23.8,324,26.4,320.8,26.4z"/>
	<g>
		<path class="st1" d="M396.4,13.2H42.4C20.1,13.2,2,31.3,2,53.5c0,59.1,0,506.6,0,561.4c0,22.3,18.1,40.3,40.4,40.3
			c21.5,0,333.4,0,354.1,0c22.3,0,40.3-18.1,40.3-40.3V53.5C436.8,31.3,418.7,13.2,396.4,13.2z"/>
	</g>
	<path class="st2" d="M396.4,11.2H42.4C19,11.2,0,30.2,0,53.5v561.4c0,23.3,19,42.3,42.4,42.3h354.1c23.3,0,42.3-19,42.3-42.3V53.5
		C438.8,30.2,419.8,11.2,396.4,11.2z M436.8,614.9c0,22.3-18.1,40.3-40.3,40.3H170.6c-24.1-31.8-38.4-71.5-38.4-114.3
		c0-104.7,85.2-189.9,189.9-189.9c43,0,82.8,14.4,114.7,38.6V614.9z M436.8,387.6c-32-24-71.7-38.2-114.7-38.2
		c-105.6,0-191.5,85.9-191.5,191.5c0,42.8,14.1,82.4,38,114.3H55.2c-15.1-35.1-23.5-73.8-23.5-114.3
		c0-160.1,130.3-290.4,290.4-290.4c40.7,0,79.5,8.4,114.7,23.6V387.6z M436.8,272.2C401,257,362.2,249,322.1,249
		c-78,0-151.3,30.4-206.5,85.5c-55.1,55.1-85.5,128.5-85.5,206.5c0,39.9,8,78.7,23.2,114.3H42.4C20.1,655.3,2,637.2,2,614.9V326
		C71.3,223,189,155.2,322.1,155.2c39.9,0,78.4,6.1,114.7,17.4V272.2z M436.8,170.8c-36.9-11.5-75.4-17.2-114.7-17.2
		c-52.3,0-103,10.2-150.8,30.4c-46.1,19.5-87.5,47.4-123.1,83C31,284.3,15.6,302.9,2,322.7V53.5c0-22.3,18.1-40.3,40.4-40.3h354.1
		c22.3,0,40.3,18.1,40.3,40.3V170.8z"/>
	<path class="st3" d="M436.8,53.5v561.4c0,22.3-18.1,40.3-40.3,40.3H42.4C20.1,655.3,2,637.2,2,614.9V53.5
		c0-22.3,18.1-40.3,40.4-40.3h354.1C418.7,13.2,436.8,31.3,436.8,53.5z"/>
	<g>
		<path class="st4" d="M119.9,178.4H82.7c-7.5,0-13.6-6.1-13.6-13.6V113c0-7.5,6.1-13.6,13.6-13.6h37.2c7.5,0,13.6,6.1,13.6,13.6
			v51.8C133.5,172.3,127.4,178.4,119.9,178.4z"/>
		<g>
			<rect x="69.1" y="124.2" class="st5" width="64.3" height="2"/>
			<path class="st5" d="M89.4,178.4h-2v-24.5c0-2.6,2.1-4.7,4.7-4.7h41.4v2H92.1c-1.5,0-2.7,1.2-2.7,2.7V178.4z"/>
			<rect x="103.3" y="150.2" class="st5" width="2" height="28.2"/>
			<rect x="118.9" y="150.2" class="st5" width="2" height="28.2"/>
			<rect x="88.1" y="99.5" class="st5" width="2" height="25.7"/>
			<rect x="103.3" y="99.5" class="st5" width="2" height="25.7"/>
			<rect x="119.4" y="99.5" class="st5" width="2" height="25.7"/>
		</g>
		<path class="st6" d="M119.9,179.4H82.7c-8,0-14.6-6.5-14.6-14.6V113c0-8,6.5-14.6,14.6-14.6h37.2c8,0,14.6,6.5,14.6,14.6v51.8
			C134.5,172.9,128,179.4,119.9,179.4z M82.7,100.5c-6.9,0-12.6,5.6-12.6,12.6v51.8c0,6.9,5.6,12.6,12.6,12.6h37.2
			c6.9,0,12.6-5.6,12.6-12.6V113c0-6.9-5.6-12.6-12.6-12.6H82.7z"/>
	</g>
	<g>
		<path class="st7" d="M64.2,499.2h5.1l6.5,22l7.1-22h3.9l7,22l6.5-22h5.1l-9.4,30.5h-3.9l-7.3-22.2l-7.4,22.2h-3.9L64.2,499.2z"/>
		<path class="st7" d="M104.7,518.5c0-7.7,5.5-11.6,10.8-11.6c4.1,0,6.9,2.2,7.7,4h0.1v-3.6h4.7v22.3h-4.7v-3.6h-0.1
			c-0.8,1.8-3.6,4-7.7,4C110.2,530.1,104.7,526.2,104.7,518.5z M123.5,518.5c0-4.8-3.5-7.3-7.1-7.3c-3.6,0-7,2.5-7,7.3
			s3.5,7.3,7,7.3C120,525.8,123.5,523.3,123.5,518.5z"/>
		<path class="st7" d="M155.1,507.3v20.8c0,8.2-6.4,10.4-11.5,10.4c-2.8,0-5.3-0.6-6.5-1.5v-3.9c1,0.7,3.2,1.4,5.7,1.4
			c4.3,0,7.6-2,7.6-6.2v-2.3h-0.3c-0.8,1.8-3.6,4-7.6,4c-5.2,0-10.8-3.9-10.8-11.6s5.6-11.6,10.8-11.6c4,0,6.8,2.2,7.6,4h0.3v-3.6
			H155.1z M150.5,518.5c0-4.8-3.5-7.3-7.1-7.3c-3.6,0-7,2.5-7,7.3s3.5,7.3,7,7.3C147.1,525.8,150.5,523.3,150.5,518.5z"/>
		<path class="st7" d="M180.8,520.3h-17.5c0.7,3.9,3.8,5.8,7.6,5.8c2.4,0,4.6-0.8,6.2-2.3l2.2,2.3c-1.9,2.4-5.2,4-8.9,4
			c-6.1,0-11.6-4.2-11.6-11.6c0-7.5,5.5-11.6,11.2-11.6S181.8,511,180.8,520.3z M163.2,516.8h13.4c-0.3-3.9-3.3-5.8-6.5-5.8
			C166.9,511,163.9,512.8,163.2,516.8z"/>
		<path class="st7" d="M86.4,567.9c0,5.2-3.5,8.8-10.4,8.8H65.5v-30.5h10.8c5.3,0,8.3,3.3,8.3,7.3c0,3-1.8,5.3-4.3,6.3
			C83.8,560.6,86.4,563.3,86.4,567.9z M70.3,550.5v7.9h5c3,0,4.6-1.7,4.6-4c0-2.4-1.5-3.8-4.6-3.8H70.3z M81.6,567.4
			c0-3.1-1.9-5.2-6-5.2h-5.3v10.3h5.4C79.7,572.4,81.6,570.5,81.6,567.4z"/>
		<path class="st7" d="M89.2,565.5c0-7.7,5.5-11.6,10.8-11.6c4.1,0,6.9,2.2,7.7,4h0.1v-3.6h4.7v22.3h-4.7v-3.6h-0.1
			c-0.8,1.8-3.6,4-7.7,4C94.7,577.1,89.2,573.2,89.2,565.5z M108,565.5c0-4.8-3.5-7.3-7.1-7.3c-3.6,0-7,2.5-7,7.3s3.5,7.3,7,7.3
			C104.5,572.8,108,570.4,108,565.5z"/>
		<path class="st7" d="M116,571l3.9-1.1c0.5,1.9,1.9,3.4,4.2,3.4c1.8,0,3.5-0.9,3.5-2.9c0-1.4-0.9-2.3-3.1-3.1l-2.4-0.9
			c-3.7-1.4-5.2-3.7-5.2-6.3c0-3.8,3.3-6.1,7.3-6.1c3.8,0,6.6,2.1,7.4,5.4l-3.7,1c-0.6-1.8-1.9-2.6-3.4-2.6c-1.7,0-2.9,0.9-2.9,2.4
			c0,1.2,0.7,2.1,2.7,2.9l2.2,0.9c3.1,1.2,5.9,2.7,5.9,6.6c0,4.5-3.8,6.7-8.2,6.7C119.8,577.1,116.7,574.9,116,571z"/>
		<path class="st7" d="M135.9,546.2h4.7v4.3h-4.7V546.2z M135.9,554.4h4.7v22.3h-4.7V554.4z"/>
		<path class="st7" d="M144.3,565.5c0-7.5,5.8-11.6,11.7-11.6c3.9,0,7.5,1.8,9.6,5.5l-3.5,2.2c-1.3-2.1-3.5-3.3-6-3.3
			c-3.6,0-7,2.7-7,7.3c0,4.6,3.4,7.3,7,7.3c2.5,0,4.7-1.3,6-3.3l3.5,2.2c-2.1,3.6-5.7,5.5-9.6,5.5
			C150.2,577.1,144.3,573.1,144.3,565.5z"/>
	</g>
	<g>
		<linearGradient id="SVGID_2_" gradientUnits="userSpaceOnUse" x1="363.8165" y1="499.8322" x2="280.4316" y2="582.0343">
			<stop  offset="0" style="stop-color:#FACC00"/>
			<stop  offset="8.926853e-02" style="stop-color:#F2CC00"/>
			<stop  offset="0.2306" style="stop-color:#DBCB00"/>
			<stop  offset="0.4063" style="stop-color:#B6C900"/>
			<stop  offset="0.6094" style="stop-color:#82C700"/>
			<stop  offset="0.8329" style="stop-color:#41C400"/>
			<stop  offset="1" style="stop-color:#0BC200"/>
		</linearGradient>
		<circle class="st8" cx="322.1" cy="540.9" r="58.5"/>
		<g>
			<path class="st9" d="M324.8,538.1c-2.2-1.3-4.4-2.5-6.6-3.7c0,12.5,0,25.1,0,37.6c-2.7-1.6-5.4-3.1-8.1-4.6c0-12.5,0-25.1,0-37.6
				c-2.6-1.5-5.3-3-7.9-4.5c0,12.4,0,24.9,0,37.3c-1.5-0.7-3-1.3-4.5-2c-2.6-1.1-4.6-3.8-4.3-6.7c0-8.7,0-17.5,0-26.2
				c0.1-2,1.3-3.8,3-4.7c0.4-0.2,0.3-0.9-0.1-1c-1.9-1.1-3.7-2.1-5.6-3.2c-0.4-0.3-1.1-0.3-1.5,0.1c-1.8,1.8-2.7,4.2-3.2,6.6
				c-0.2,0.8-0.2,1.6-0.2,2.5c0,8.9,0,17.8,0,26.7c0,4.2,2.3,8.3,5.9,10.5c7.2,4.3,14.5,8.6,21.7,12.9c3.4,2,7.4,2.7,11.3,2.5
				c0.6,0,1-0.6,1-1.2c0-13.2,0-26.3,0-39.5C325.8,539.1,325.4,538.4,324.8,538.1z"/>
			<path class="st9" d="M358.4,527.5c0-4.6-2.7-9-6.8-11.2c-7.8-4.4-15.6-8.8-23.4-13.2c-3.6-2.2-8.3-2.3-12-0.2
				c-6.5,3.6-12.9,7.2-19.4,10.8c12.2,7,24.4,13.9,36.6,20.9c0,14.2,0,28.4,0,42.6c6.2-3.6,12.4-7.3,18.6-10.9
				c3.8-2.3,6.3-6.7,6.3-11.2C358.4,545.8,358.4,536.7,358.4,527.5z M351.1,553.5c0.1,2.3-1.1,4.7-3.1,5.9c-2.4,1.4-4.7,2.9-7.1,4.3
				c0-10.4,0-20.8,0-31.2c0-1.8-1.1-3.6-2.7-4.5c-8.5-4.8-17-9.6-25.6-14.4c2-1.1,4-2.3,5.9-3.4c2.3-1.2,5.1-1.2,7.4,0
				c6.8,4,13.7,7.9,20.5,11.9c1.1,0.6,2.2,1.3,3,2.3c1.2,1.4,1.7,3.3,1.7,5.2C351.1,537.6,351.1,545.5,351.1,553.5z"/>
		</g>
	</g>
</g>
</svg>
