<?xml version="1.0" encoding="utf-8"?>
<!-- Generator: Adobe Illustrator 24.3.0, SVG Export Plug-In . SVG Version: 6.00 Build 0)  -->
<svg version="1.1" id="Capa_1" xmlns="http://www.w3.org/2000/svg" xmlns:xlink="http://www.w3.org/1999/xlink" x="0px" y="0px"
	 viewBox="0 0 648.2 1100.4" style="enable-background:new 0 0 648.2 1100.4;" xml:space="preserve">
<style type="text/css">
	.st0{fill:#ECF1F5;}
	.st1{fill:#E8ECF2;}
	.st2{fill:#919FC7;}
</style>
<g>
	<path class="st0" d="M613.6,781.4c0,18.6,15.1,33.7,33.6,33.7v256c0,15.7-12.7,28.3-28.3,28.3H29.4c-15.7,0-28.4-12.7-28.4-28.3
		V815.2c18.5-0.1,33.5-15.1,33.5-33.7c0-18.5-15-33.6-33.5-33.7V29.3C1,13.7,13.7,1,29.4,1h589.5c15.6,0,28.3,12.7,28.3,28.3v718.4
		C628.6,747.7,613.6,762.8,613.6,781.4z"/>
	<path class="st1" d="M618.9,1100.4H29.4c-16.2,0-29.4-13.2-29.4-29.3V814.2l1,0c17.9-0.1,32.5-14.7,32.5-32.7
		c0-17.9-14.6-32.6-32.5-32.6l-1,0V29.3C0,13.2,13.2,0,29.4,0h589.5c16.2,0,29.3,13.2,29.3,29.3v719.4h-1c-18,0-32.6,14.6-32.6,32.7
		c0,18,14.6,32.7,32.6,32.7h1v257C648.2,1087.3,635,1100.4,618.9,1100.4z M2,816.2v254.9c0,15.1,12.3,27.3,27.4,27.3h589.5
		c15.1,0,27.3-12.3,27.3-27.3V816c-18.6-0.5-33.6-15.9-33.6-34.6c0-18.8,15-34.1,33.6-34.6V29.3c0-15.1-12.3-27.3-27.3-27.3H29.4
		C14.3,2,2,14.3,2,29.3v717.6c18.6,0.6,33.5,15.9,33.5,34.6C35.5,800.2,20.6,815.6,2,816.2z"/>
</g>
<g>
	<rect x="76.1" y="779.6" class="st2" width="6" height="3"/>
	<rect x="542.5" y="779.6" class="st2" width="11.8" height="3"/>
	<rect x="518.9" y="779.6" class="st2" width="11.8" height="3"/>
	<rect x="495.3" y="779.6" class="st2" width="11.8" height="3"/>
	<rect x="471.7" y="779.6" class="st2" width="11.8" height="3"/>
	<rect x="448.1" y="779.6" class="st2" width="11.8" height="3"/>
	<rect x="424.4" y="779.6" class="st2" width="11.8" height="3"/>
	<rect x="400.8" y="779.6" class="st2" width="11.8" height="3"/>
	<rect x="377.2" y="779.6" class="st2" width="11.8" height="3"/>
	<rect x="353.6" y="779.6" class="st2" width="11.8" height="3"/>
	<rect x="330" y="779.6" class="st2" width="11.8" height="3"/>
	<rect x="306.4" y="779.6" class="st2" width="11.8" height="3"/>
	<rect x="282.8" y="779.6" class="st2" width="11.8" height="3"/>
	<rect x="259.2" y="779.6" class="st2" width="11.8" height="3"/>
	<rect x="235.6" y="779.6" class="st2" width="11.8" height="3"/>
	<rect x="212" y="779.6" class="st2" width="11.8" height="3"/>
	<rect x="188.3" y="779.6" class="st2" width="11.8" height="3"/>
	<rect x="164.7" y="779.6" class="st2" width="11.8" height="3"/>
	<rect x="141.1" y="779.6" class="st2" width="11.8" height="3"/>
	<rect x="117.5" y="779.6" class="st2" width="11.8" height="3"/>
	<rect x="93.9" y="779.6" class="st2" width="11.8" height="3"/>
	<rect x="566.1" y="779.6" class="st2" width="6" height="3"/>
</g>
</svg>
