<?xml version="1.0" encoding="utf-8"?>
<!-- Generator: Adobe Illustrator 24.3.0, SVG Export Plug-In . SVG Version: 6.00 Build 0)  -->
<svg version="1.1" id="Capa_1" xmlns="http://www.w3.org/2000/svg" xmlns:xlink="http://www.w3.org/1999/xlink" x="0px" y="0px"
	 viewBox="0 0 413 96.9" style="enable-background:new 0 0 413 96.9;" xml:space="preserve">
<style type="text/css">
	.st0{fill:#939393;}
	.st1{fill:url(#SVGID_1_);}
	.st2{fill:#FFFFFF;}
</style>
<g>
	<path class="st0" d="M189.1,25.8c2.3-2.6,5.9-3.5,9.2-3.3c3.8-0.2,8,1.5,9.9,4.9c2.3,3.8,1.8,8.5,1.8,12.7c-2.6,0-5.1,0-7.7,0
		c-0.1-2.7,0.4-5.4-0.4-8c-1-2.9-5.9-3.2-7.2-0.3c-0.7,1.4-0.5,3.1-0.6,4.6c0,8.6,0,17.3,0,25.9c0,1.6,0.4,3.4,1.9,4.2
		c1.8,1,4.5,0.6,5.6-1.3c0.6-1.2,0.7-2.6,0.7-3.9c0-2.9,0-5.8,0-8.6c-1.2,0-2.4,0-3.6,0c0-2.4,0-4.9,0-7.3c3.8,0,7.5,0,11.3,0
		c0,5.2,0,10.3,0,15.5c0,3.9-0.7,8.2-3.8,10.9c-3,2.6-7.2,2.9-11,2.4c-2.6-0.4-5.1-1.6-6.7-3.7c-2-2.6-2.5-5.9-2.5-9.1
		c0-8.6,0-17.3,0-25.9C186.1,32.1,186.7,28.4,189.1,25.8z"/>
	<polygon class="st0" points="115.8,23 123.7,23 128,62.7 131.7,23.1 139.6,23.1 143.4,62.5 147.5,23.1 154.6,23 149,73.9 
		138.2,73.9 135.4,47.7 132.5,73.9 121.5,73.9 	"/>
	<path class="st0" d="M163,23h11.8l8.1,50.9h-8.2l-1.4-9.1h-9.7l-1.4,9.1h-7.5L163,23z M168.5,33l-3.8,25.1h7.6L168.5,33z"/>
	<polygon class="st0" points="215.1,23 237,23 237,30.3 223.2,30.4 223.2,44.5 234.2,44.5 234.2,51.8 223.2,51.8 223.2,66.6 
		237,66.6 237,73.9 215.1,73.9 	"/>
	<path class="st0" d="M289.9,22.8c3.5-0.6,7.5-0.5,10.6,1.4c3.8,2.3,5.1,7,5,11.2l0,26.3c0,3.3-1,6.8-3.4,9.2
		c-2.3,2.2-5.7,3.1-8.8,2.9c-3.1,0.1-6.4-0.8-8.7-3.1c-2.3-2.2-3.2-5.5-3.3-8.6V34.3c0-3,0.9-6.2,3.1-8.5
		C285.9,24.2,287.9,23.3,289.9,22.8z M291.9,30.1c-1.9,0.6-2.5,2.8-2.5,4.6v27.1c0,1.6,0.4,3.5,2,4.4c1.2,0.6,2.8,0.6,4,0.1
		c1.5-0.7,2.1-2.5,2.1-4.1V35.1c0-1.4-0.1-2.8-0.9-4C295.5,29.7,293.5,29.6,291.9,30.1z"/>
	<path class="st0" d="M252.9,23h13.7c3,0.1,6.2,1.1,8.2,3.6c1.7,2.2,2.4,5,2.5,7.7v25.1c0.1,3.3-0.1,6.8-1.9,9.6
		c-1.8,3-5.4,4.5-8.8,4.5h-13.8V23z M261,30.2v36c2-0.1,4,0.3,5.9-0.2c2-0.6,2.5-2.8,2.5-4.6l0-26.3c0-1.8-0.5-4-2.5-4.6
		C265,30,263,30.3,261,30.2z"/>
	<polygon class="st0" points="310.7,23 318.8,23 318.8,66.2 331.9,66.2 331.9,73.5 310.7,73.5 	"/>
	<polygon class="st0" points="335.4,23 343.5,23 343.5,66.2 356.5,66.2 356.5,73.5 335.4,73.5 	"/>
	<path class="st0" d="M357.6,73.5l8.1-50.5l11.7,0l8.1,50.5h-8.1l-1.4-9.3l-9.7,0.1l-1.3,9.2L357.6,73.5z M367.3,57.3l7.5,0
		l-3.6-24.7L367.3,57.3z"/>
	<path class="st0" d="M412.9,56.9c-0.3-3.3-1.7-6.8-5-8.1c3.5-1.6,5-5.6,5.1-9.2c0-4.1,0.5-8.5-1.6-12.2c-1.7-3.1-5.5-4.4-8.9-4.4
		h-13.4v50.5h8.1V52.9c1.5,0,3,0,4.4,0.2c1.4,0.3,2.6,1.5,2.9,2.9c0.3,1,0.4,1.9,0.4,2.9v0v14.6h8L412.9,56.9z M404.9,37.9
		c-0.1,2.2,0.4,4.7-1.2,6.5c-1.7,1.7-4.3,1.1-6.5,1.2V30.2c2.2,0.2,4.9-0.7,6.6,1.1C405.4,33.2,404.8,35.7,404.9,37.9z"/>
	<linearGradient id="SVGID_1_" gradientUnits="userSpaceOnUse" x1="82.9864" y1="14.442" x2="13.9524" y2="82.4968">
		<stop  offset="0" style="stop-color:#FACC00"/>
		<stop  offset="8.926853e-02" style="stop-color:#F2CC00"/>
		<stop  offset="0.2306" style="stop-color:#DBCB00"/>
		<stop  offset="0.4063" style="stop-color:#B6C900"/>
		<stop  offset="0.6094" style="stop-color:#82C700"/>
		<stop  offset="0.8329" style="stop-color:#41C400"/>
		<stop  offset="1" style="stop-color:#0BC200"/>
	</linearGradient>
	<circle class="st1" cx="48.5" cy="48.5" r="48.5"/>
	<path class="st2" d="M50.7,46.1c-1.8-1-3.6-2.1-5.5-3.1c0,10.4,0,20.7,0,31.1c-2.2-1.3-4.5-2.5-6.7-3.8c0-10.4,0-20.7,0-31.1
		c-2.2-1.2-4.4-2.5-6.5-3.7c0,10.3,0,20.6,0,30.9c-1.2-0.6-2.5-1.1-3.7-1.6c-2.1-0.9-3.8-3.1-3.5-5.5c0-7.2,0-14.5,0-21.7
		c0-1.6,1.1-3.1,2.5-3.9c0.4-0.2,0.3-0.7-0.1-0.9c-1.6-0.9-3.1-1.8-4.6-2.6c-0.4-0.3-0.9-0.2-1.2,0.1c-1.5,1.5-2.2,3.5-2.7,5.5
		c-0.2,0.7-0.1,1.4-0.1,2c0,7.4,0,14.7,0,22.1c0,3.5,1.9,6.9,4.9,8.7c6,3.6,12,7.1,18,10.7c2.8,1.7,6.1,2.3,9.3,2
		c0.5,0,0.9-0.5,0.8-1c0-10.9,0-21.8,0-32.7C51.5,47,51.2,46.4,50.7,46.1z"/>
	<path class="st2" d="M78.5,37.3c0-3.8-2.2-7.5-5.6-9.2c-6.4-3.7-12.9-7.3-19.3-11c-3-1.8-6.9-1.9-9.9-0.2c-5.3,3-10.7,5.9-16,8.9
		c10.1,5.8,20.2,11.5,30.3,17.3c0,11.8,0,23.5,0,35.3c5.1-3,10.3-6,15.4-9c3.2-1.9,5.2-5.5,5.2-9.2C78.5,52.5,78.5,44.9,78.5,37.3z
		 M72.4,58.9c0.1,1.9-0.9,3.9-2.6,4.9c-2,1.2-3.9,2.4-5.9,3.6c0-8.6,0-17.2,0-25.8c0-1.5-0.9-3-2.2-3.8c-7.1-4-14.1-7.9-21.2-11.9
		c1.6-0.9,3.3-1.9,4.9-2.8c1.9-1,4.2-1,6.1,0c5.7,3.3,11.3,6.6,17,9.8c0.9,0.5,1.8,1.1,2.5,1.9c1,1.2,1.4,2.8,1.4,4.3
		C72.5,45.7,72.5,52.3,72.4,58.9z"/>
</g>
</svg>
